<svg xmlns="http://www.w3.org/2000/svg" version="1.1" xmlns:xlink="http://www.w3.org/1999/xlink" xmlns:svgjs="http://svgjs.dev/svgjs" width="2000" height="1500" viewBox="0 0 2000 1500"><rect width="2000" height="1500" fill="#c55501"></rect><g transform="matrix(0.75,0,0,0.75,249.67638483964993,0.05154664723022506)"><svg viewBox="0 0 343 343" data-background-color="#c55501" preserveAspectRatio="xMidYMid meet" height="1999" width="2000" xmlns="http://www.w3.org/2000/svg" xmlns:xlink="http://www.w3.org/1999/xlink"><g id="tight-bounds" transform="matrix(1,0,0,1,0.0740000000000407,0.07400000000001228)"><svg viewBox="0 0 342.85155851775386 342.85155851775386" height="342.85155851775386" width="342.85155851775386"><g><svg></svg></g><g><svg viewBox="0 0 342.85155851775386 342.85155851775386" height="342.85155851775386" width="342.85155851775386"><g><path d="M0 171.426c0-94.676 76.75-171.426 171.426-171.426 94.676 0 171.426 76.75 171.426 171.426 0 94.676-76.75 171.426-171.426 171.426-94.676 0-171.426-76.75-171.426-171.426zM171.426 335.322c90.517 0 163.896-73.379 163.896-163.896 0-90.517-73.379-163.896-163.896-163.897-90.517 0-163.896 73.379-163.897 163.897 0 90.517 73.379 163.896 163.897 163.896z" data-fill-palette-color="tertiary" fill="#fcde30" stroke="transparent"></path><ellipse rx="164.56874808852186" ry="164.56874808852186" cx="171.42577925887693" cy="171.42577925887693" fill="#fcde30" stroke="transparent" stroke-width="0" fill-opacity="1" data-fill-palette-color="tertiary"></ellipse></g><g transform="matrix(1,0,0,1,64.84655864529837,101.4503238780946)"><svg viewBox="0 0 213.1584412271571 139.95091076156467" height="139.95091076156467" width="213.1584412271571"><g><svg viewBox="0 0 213.1584412271571 139.95091076156467" height="139.95091076156467" width="213.1584412271571"><g><svg viewBox="0 0 213.1584412271571 139.95091076156467" height="139.95091076156467" width="213.1584412271571"><g><svg viewBox="0 0 213.1584412271571 139.95091076156467" height="139.95091076156467" width="213.1584412271571"><g id="textblocktransform"><svg viewBox="0 0 213.1584412271571 139.95091076156467" height="139.95091076156467" width="213.1584412271571" id="textblock"><g><svg viewBox="0 0 213.1584412271571 83.49166996637737" height="83.49166996637737" width="213.1584412271571"><g transform="matrix(1,0,0,1,0,0)"><svg width="213.1584412271571" viewBox="2 -36.04 93.98 36.81999999999999" height="83.49166996637737" data-palette-color="#c55501"><path d="M22.46 0.34L22.46 0.34 18.16 0.34Q16.55-1.17 14.75-3.13 12.94-5.08 11.79-6.45 10.64-7.81 8.62-10.33 6.59-12.84 5.76-13.87L5.76-13.87 6.4-0.68Q5.96 0.78 4.69 0.78L4.69 0.78Q3.81 0.78 3 0.07 2.2-0.63 2-1.66L2-1.66Q2.15-5.57 2.25-17.87 2.34-30.18 2.69-36.04L2.69-36.04 4.88-35.55Q5.03-33.11 5.22-27.08 5.42-21.04 5.52-19.04L5.52-19.04Q6.35-20.07 8.62-22.83 10.89-25.59 11.74-26.59 12.6-27.59 14.23-29.49 15.87-31.4 17.24-32.81 18.6-34.23 20.17-35.69L20.17-35.69 21.63-33.3Q19.87-30.37 8.01-16.7L8.01-16.7Q9.72-14.89 15.06-8.3 20.41-1.71 22.46 0.34ZM25.49-25.1L25.49-25.1 27.73-24.61Q28.12-20.61 28.42-12.04 28.71-3.47 28.81-1.42L28.81-1.42Q28.37 0.1 27.1 0.1L27.1 0.1Q26.22 0.1 25.41-0.61 24.61-1.32 24.41-2.34L24.41-2.34Q24.51-4.35 24.8-12.77 25.1-21.19 25.49-25.1ZM26.17-33.84L26.17-33.84Q27.49-33.84 28.37-32.69 29.25-31.54 29.25-30.08L29.25-30.08Q29.25-29 28.73-28.34 28.22-27.69 27.34-27.69L27.34-27.69Q25.97-27.69 25.19-28.81 24.41-29.93 24.41-31.45L24.41-31.45Q24.41-32.52 24.88-33.18 25.34-33.84 26.17-33.84ZM33.25-2.34L34.32-33.5 36.57-33.01 37.64-1.42Q37.2 0.1 35.93 0.1L35.93 0.1Q35.05 0.1 34.25-0.61 33.44-1.32 33.25-2.34L33.25-2.34ZM54.97-23.63L54.97-23.63 55.51-21.44Q54.19-21.34 51.46-20.92 48.72-20.51 47.36-20.41L47.36-20.41Q47.6-18.7 47.65-15.92 47.7-13.13 47.77-11.11 47.84-9.08 48.21-7.06 48.58-5.03 49.72-3.96 50.87-2.88 52.82-2.88L52.82-2.88Q54.29-2.88 56.49-3.56L56.49-3.56Q57.41-1.76 57.85-0.93L57.85-0.93Q54 0.44 50.04 0.44L50.04 0.44Q48.58 0.44 47.5-0.44 46.43-1.32 45.84-2.64 45.26-3.96 44.89-5.98 44.52-8.01 44.43-9.81 44.33-11.62 44.33-13.96L44.33-13.96Q44.33-15.23 44.35-17.48 44.38-19.73 44.38-20.56L44.38-20.56Q43.89-20.51 42.08-20.48 40.28-20.46 39.98-20.46L39.98-20.46Q39.64-23.73 39.64-23.83L39.64-23.83Q39.98-23.73 40.76-23.73L40.76-23.73Q41.2-23.73 42.18-23.8 43.16-23.88 43.64-23.88L43.64-23.88Q43.84-23.88 44.16-23.85 44.47-23.83 44.57-23.83L44.57-23.83Q44.77-29.2 45.01-32.57L45.01-32.57 47.21-32.03Q47.26-30.86 47.28-29.52 47.31-28.17 47.33-26.54 47.36-24.9 47.36-24.02L47.36-24.02Q48.63-23.93 51.16-23.83 53.7-23.73 54.97-23.63ZM77.33-4.74L77.33-4.74 77.82-2.59Q75.67-1.81 71.45-0.85 67.23 0.1 65.18 0.1L65.18 0.1Q63.08 0.1 61.51-1.29 59.95-2.69 59.17-4.86 58.39-7.03 58.02-9.16 57.66-11.28 57.66-13.33L57.66-13.33Q57.66-25.54 68.69-25.54L68.69-25.54Q71.33-25.54 73.33-23.85 75.33-22.17 75.33-19.48L75.33-19.48Q75.33-18.02 74.53-16.89 73.72-15.77 72.57-15.11 71.43-14.45 69.64-13.92 67.86-13.38 66.49-13.13 65.13-12.89 63.22-12.6 61.32-12.3 60.59-12.16L60.59-12.16Q60.63-10.74 60.76-9.67 60.88-8.59 61.24-7.35 61.61-6.1 62.22-5.3 62.83-4.49 63.91-3.96 64.98-3.42 66.45-3.42L66.45-3.42Q68.2-3.42 70.74-3.74 73.28-4.05 75.26-4.39 77.24-4.74 77.33-4.74ZM60.78-15.19L60.78-15.19Q67.42-17.09 71.67-19.19L71.67-19.19Q71.33-20.8 70.74-21.53 70.16-22.27 68.98-22.27L68.98-22.27Q66.01-22.27 63.59-20.21 61.17-18.16 60.78-15.19ZM95.89-18.6L95.89-18.6 93.74-18.75Q92.71-21.48 90.27-21.48L90.27-21.48Q89.2-21.48 88-21 86.8-20.51 86.02-20 85.24-19.48 83.97-18.51L83.97-18.51Q83.97-17.82 83.95-14.06 83.92-10.3 84-5.71 84.07-1.12 84.17-0.78L84.17-0.78Q83.73 0.68 82.46 0.68L82.46 0.68Q81.58 0.68 80.77-0.02 79.97-0.73 79.77-1.76L79.77-1.76Q80.7-17.43 81.43-25.44L81.43-25.44 83.63-24.95 83.78-21.68Q87.19-24.51 89.64-24.51L89.64-24.51Q92.32-24.51 94.15-23.29 95.98-22.07 95.98-19.73L95.98-19.73Q95.98-18.99 95.89-18.6Z" opacity="1" transform="matrix(1,0,0,1,0,0)" fill="#c55501" class="wordmark-text-0" data-fill-palette-color="quaternary" id="text-0"></path></svg></g></svg></g><g transform="matrix(1,0,0,1,0,103.20204944535988)"><svg viewBox="0 0 213.1584412271571 36.74886131620478" height="36.74886131620478" width="213.1584412271571"><g transform="matrix(1,0,0,1,0,0)"><svg width="213.1584412271571" viewBox="-11.3 -29.8 283.31 48.85" height="36.74886131620478" data-palette-color="#c55501"><path d="M16.7-28.25L16.7-28.25Q15.85-26.15 14.25-22.05L14.25-22.05Q10.75-13.05 8.55-8.6L8.55-8.6Q10-10.4 13.05-13.7L13.05-13.7Q13.05-13.95 13.05-14.43 13.05-14.9 13.1-15.65L13.1-15.65Q13.25-16.2 13.6-16.48 13.95-16.75 14.2-15.95L14.2-15.95Q14.2-15.7 14.3-15.2L14.3-15.2 14.35-15.35Q15.6-16.75 22.65-22.65 29.7-28.55 31.05-29.18 32.4-29.8 33.33-29.8 34.25-29.8 34.6-29.38 34.95-28.95 34.95-28.53 34.95-28.1 34.52-27.73 34.1-27.35 33.48-27.05 32.85-26.75 29.58-24.9 26.3-23.05 23.6-21.25L23.6-21.25Q17.1-16.85 14.6-14.1L14.6-14.1Q15.75-9.95 16.9-7.55 18.05-5.15 20.53-2.13 23 0.9 25.05 0.9L25.05 0.9Q25.9 0.9 26.25 0.45 26.6 0 26.5-0.7L26.5-0.7Q26.2-2.1 25.6-2.98 25-3.85 25.48-3.85 25.95-3.85 26.38-3.43 26.8-3 27.18-2.18 27.55-1.35 27.55-0.75L27.55-0.75Q27.5 0.65 26.2 1.45 24.9 2.25 23.7 2.25L23.7 2.25Q21.45 2.25 19.6 0.93 17.75-0.4 16.5-2.7L16.5-2.7Q14.25-6.9 13.25-12.4L13.25-12.4Q7.65-5.85 5.55-2.95L5.55-2.95Q0.4 5.4-4.3 6.85L-4.3 6.85Q-5.65 7.3-6.65 7.3L-6.65 7.3Q-10.35 7.3-11.25 4.15L-11.25 4.15Q-11.3 3.95-11.3 3.73-11.3 3.5-11.23 3.18-11.15 2.85-10.9 2.95-10.65 3.05-10.4 3.9L-10.4 3.9Q-9.9 5.4-8.5 5.75L-8.5 5.75Q-7.4 5.95-6.58 5.95-5.75 5.95-5.15 5.75L-5.15 5.75Q0 4.1 4.85-4.75L4.85-4.75Q8.75-12.1 12.05-23.25L12.05-23.25Q9.4-20.9 5.55-20.5L5.55-20.5Q5.2-20.5 5.05-20.68 4.9-20.85 5.05-21.08 5.2-21.3 5.55-21.35L5.55-21.35Q7.7-21.55 10.03-23.58 12.35-25.6 13.5-28.25L13.5-28.25Q13.65-28.9 15.23-28.9 16.8-28.9 16.7-28.25ZM34.75-13.85L34.75-13.85Q36-13.85 36.25-13.05L36.25-13.05Q36.35-12.6 36.12-12.18 35.9-11.75 35.8-11.5 35.7-11.25 35.65-11.1L35.65-11.1Q35.4-10.6 35.15-10.15L35.15-10.15Q32.3-4.45 32.15-2.9L32.15-2.9Q32.1-2.45 32.1-1.75 32.1-1.05 32.5-0.6L32.5-0.6Q33.2 0.2 34.5-0.5 35.8-1.2 38.12-3.3 40.45-5.4 41.9-7.4L41.9-7.4Q42.1-7.65 42.35-7.53 42.6-7.4 42.6-7.28 42.6-7.15 42.5-7L42.5-7Q41.75-5.65 39.8-3.55L39.8-3.55Q36.6-0.1 34.45 0.7L34.45 0.7Q33.2 1.15 32.35 1.15L32.35 1.15Q30.35 1.15 29.7-0.75L29.7-0.75Q29.6-1.1 29.6-1.6L29.6-1.6Q29.6-3.35 31.2-6.9L31.2-6.9Q30.95-6.35 29.25-4.4L29.25-4.4Q28.8-3.9 28.55-4.4L28.55-4.4Q28.5-4.5 28.5-4.67 28.5-4.85 28.7-5.1L28.7-5.1Q31.15-8.15 32.55-10.25L32.55-10.25Q32.45-10.5 32.65-10.9L32.65-10.9Q33.65-13.7 34.4-13.85L34.4-13.85Q34.55-13.85 34.75-13.85ZM38.7-20.5L38.7-20.5 38.3-18.9Q38.3-18.45 37.65-17.45 37-16.45 36.65-16.45L36.65-16.45Q34.5-16.45 34.5-17.5L34.5-17.5Q34.5-17.7 36.65-19.35L36.65-19.35 37.5-20Q38.3-20.7 38.5-20.7 38.7-20.7 38.7-20.5ZM58.6-25.5L58.6-25.5Q59.2-26.6 59.2-27.2L59.2-27.2Q59.2-28.25 58.35-28.25L58.35-28.25Q57.65-28.25 56.6-27.45L56.6-27.45Q52.6-24.35 48.85-17.65L48.85-17.65Q45.85-12.25 44.45-8.4L44.45-8.4Q47.9-10.75 52.17-16.05 56.45-21.35 58.6-25.5ZM43.7-6.4L43.7-6.4Q43.1-4.7 43.05-4.13 43-3.55 43-2.58 43-1.6 43.5-0.8L43.5-0.8Q44.35 0.55 46.35-0.6L46.35-0.6Q47.85-1.4 50.15-3.53 52.45-5.65 53.7-7.4L53.7-7.4Q53.8-7.55 54-7.55L54-7.55Q54.45-7.55 54.25-6.9L54.25-6.9Q53.5-5.55 51.47-3.45 49.45-1.35 47.8-0.13 46.15 1.1 44.5 1.1L44.5 1.1Q40.7 1.1 40.7-2.6L40.7-2.6Q40.7-2.75 40.7-2.9L40.7-2.9Q40.9-6.4 44.25-13.48 47.6-20.55 50.3-24.15L50.3-24.15 51.85-26.1Q52.4-26.75 53.45-27.7L53.45-27.7Q55.45-29.6 57.57-29.6 59.7-29.6 60.45-28.3L60.45-28.3Q60.7-27.85 60.7-27 60.7-26.15 59.95-24.6L59.95-24.6Q54.8-15.65 43.7-6.4ZM60.34-13.95L60.99-14Q64.84-14.35 65.67-14.35 66.49-14.35 66.49-14.1L66.49-14.1Q66.49-13.8 65.32-13.48 64.14-13.15 59.59-12.65L59.59-12.65Q59.34-12.2 58.99-11.6L58.99-11.6Q58.24-10.4 58.19-10.15L58.19-10.15Q55.34-4.45 55.19-2.9L55.19-2.9Q55.14-2.45 55.14-1.75 55.14-1.05 55.54-0.6L55.54-0.6Q56.24 0.2 57.54-0.5 58.84-1.2 61.17-3.3 63.49-5.4 64.94-7.4L64.94-7.4Q65.14-7.65 65.44-7.5L65.44-7.5Q66.19-7.15 62.84-3.55L62.84-3.55Q59.64-0.1 57.49 0.7L57.49 0.7Q56.24 1.15 55.39 1.15L55.39 1.15Q53.39 1.15 52.74-0.75L52.74-0.75Q52.64-1.1 52.64-1.6L52.64-1.6Q52.64-3.35 54.24-6.9L54.24-6.9Q53.99-6.35 52.29-4.4L52.29-4.4Q51.84-3.9 51.59-4.4L51.59-4.4Q51.54-4.5 51.54-4.67 51.54-4.85 51.74-5.1L51.74-5.1Q54.19-8.15 55.59-10.25L55.59-10.25Q55.59-10.3 56.69-12.35L56.69-12.35Q56.19-12.25 55.67-12.25 55.14-12.25 54.89-12.58 54.64-12.9 54.84-13.35L54.84-13.35Q55.19-14.15 57.49-14.25L57.49-14.25Q57.54-14.35 57.69-14.35L57.69-14.35 60.19-19Q60.39-19.4 60.64-19.83 60.89-20.25 61.02-20.48 61.14-20.7 61.29-20.95 61.44-21.2 61.54-21.3 61.64-21.4 61.74-21.5L61.74-21.5Q61.94-21.8 62.92-21.8 63.89-21.8 64.24-21.25L64.24-21.25Q64.39-21.05 64.39-20.58 64.39-20.1 64.04-19.53 63.69-18.95 63.29-18.7 62.89-18.45 62.74-18.15L62.74-18.15 60.34-13.95ZM75.84-14.55L75.84-14.55Q78.54-14.55 78.54-11.95L78.54-11.95Q78.54-10.6 77.79-9.75L77.79-9.75Q76.54-7.9 73.74-6.53 70.94-5.15 68.99-5L68.99-5Q68.29-4.95 68.24-5.4L68.24-5.4Q68.19-5.6 68.37-5.65 68.54-5.7 68.64-5.7L68.64-5.7Q69.79-5.8 71.59-6.8L71.59-6.8Q74.94-8.6 76.49-10.5L76.49-10.5Q77.14-11.4 77.14-12.23 77.14-13.05 76.34-13.05L76.34-13.05Q75.69-13.05 74.59-12.5L74.59-12.5Q72.24-11.4 69.64-8.68 67.04-5.95 66.24-3.35L66.24-3.35Q65.99-2.55 65.99-1.78 65.99-1 66.64-0.3 67.29 0.4 68.64 0.4L68.64 0.4Q70.14 0.4 72.09-0.4L72.09-0.4Q77.74-2.7 80.79-7.35L80.79-7.35Q81.09-7.75 81.34-7.5L81.34-7.5Q81.54-7.4 81.54-7.25 81.54-7.1 81.39-6.9L81.39-6.9Q79.89-4.4 77.59-2.45L77.59-2.45Q73.14 1.35 68.94 1.35L68.94 1.35Q65.34 1.35 63.89-0.8L63.89-0.8Q63.34-1.65 63.34-2.85 63.34-4.05 63.99-5.7L63.99-5.7Q65.24-8.55 69.34-11.55 73.44-14.55 75.84-14.55ZM86.84 1.25L86.84 1.25Q84.29 1.25 84.29-1.83 84.29-4.9 88.69-9.4L88.69-9.4Q89.04-9.75 89.19-9.95L89.19-9.95 89.54-10.45Q90.24-11.4 90.19-11.65L90.19-11.65 90.04-12.1Q89.84-12.7 88.39-12.98 86.94-13.25 86.04-13.25L86.04-13.25Q81.54-6.9 80.84-6 80.14-5.1 79.89-5.25 79.64-5.4 79.64-5.6 79.64-5.8 79.94-6.2L79.94-6.2Q82.64-9.5 84.59-13.25L84.59-13.25Q83.99-13.35 83.69-13.68 83.39-14 83.64-14.78 83.89-15.55 85.16-16.85 86.44-18.15 87.39-18.6 88.34-19.05 88.59-19.15 88.84-19.25 89.14-19.25L89.14-19.25Q89.74-19.25 88.74-17.45L88.74-17.45 86.79-14.35Q89.04-14.2 90.64-14.2L90.64-14.2 92.39-14.25Q93.24-14.25 93.64-14.03 94.04-13.8 93.84-13.25L93.84-13.25Q93.49-12.3 92.09-10.7L92.09-10.7Q89.09-7.2 87.59-3.25L87.59-3.25Q87.24-2.3 87.24-1.6L87.24-1.6Q87.24-0.15 88.29-0.15L88.29-0.15Q88.64-0.15 89.61-0.7 90.59-1.25 92.89-3.33 95.19-5.4 96.59-7.4L96.59-7.4Q96.79-7.65 97.06-7.53 97.34-7.4 97.34-7.28 97.34-7.15 97.24-7L97.24-7Q96.49-5.65 94.54-3.55 92.59-1.45 90.74-0.15L90.74-0.15Q88.94 1.25 86.84 1.25ZM111.73-13.85L111.73-13.85Q112.98-13.85 113.23-13.05L113.23-13.05Q113.33-12.6 113.11-12.18 112.88-11.75 112.78-11.5 112.68-11.25 112.63-11.1L112.63-11.1Q112.38-10.6 112.13-10.15L112.13-10.15Q109.28-4.45 109.13-2.9L109.13-2.9Q109.08-2.45 109.08-1.75 109.08-1.05 109.48-0.6L109.48-0.6Q110.18 0.2 111.48-0.5 112.78-1.2 115.11-3.3 117.43-5.4 118.88-7.4L118.88-7.4Q119.08-7.65 119.33-7.53 119.58-7.4 119.58-7.28 119.58-7.15 119.48-7L119.48-7Q118.73-5.65 116.78-3.55L116.78-3.55Q113.58-0.1 111.43 0.7L111.43 0.7Q110.18 1.15 109.33 1.15L109.33 1.15Q107.33 1.15 106.68-0.75L106.68-0.75Q106.58-1.1 106.58-1.6L106.58-1.6Q106.58-3.35 108.18-6.9L108.18-6.9Q107.93-6.35 106.23-4.4L106.23-4.4Q105.78-3.9 105.53-4.4L105.53-4.4Q105.48-4.5 105.48-4.67 105.48-4.85 105.68-5.1L105.68-5.1Q108.13-8.15 109.53-10.25L109.53-10.25Q109.43-10.5 109.63-10.9L109.63-10.9Q110.63-13.7 111.38-13.85L111.38-13.85Q111.53-13.85 111.73-13.85ZM115.68-20.5L115.68-20.5 115.28-18.9Q115.28-18.45 114.63-17.45 113.98-16.45 113.63-16.45L113.63-16.45Q111.48-16.45 111.48-17.5L111.48-17.5Q111.48-17.7 113.63-19.35L113.63-19.35 114.48-20Q115.28-20.7 115.48-20.7 115.68-20.7 115.68-20.5ZM125.58-13.95L126.23-14Q130.08-14.35 130.91-14.35 131.73-14.35 131.73-14.1L131.73-14.1Q131.73-13.8 130.56-13.48 129.38-13.15 124.83-12.65L124.83-12.65Q124.58-12.2 124.23-11.6L124.23-11.6Q123.48-10.4 123.43-10.15L123.43-10.15Q120.58-4.45 120.43-2.9L120.43-2.9Q120.38-2.45 120.38-1.75 120.38-1.05 120.78-0.6L120.78-0.6Q121.48 0.2 122.78-0.5 124.08-1.2 126.41-3.3 128.73-5.4 130.18-7.4L130.18-7.4Q130.38-7.65 130.68-7.5L130.68-7.5Q131.43-7.15 128.08-3.55L128.08-3.55Q124.88-0.1 122.73 0.7L122.73 0.7Q121.48 1.15 120.63 1.15L120.63 1.15Q118.63 1.15 117.98-0.75L117.98-0.75Q117.88-1.1 117.88-1.6L117.88-1.6Q117.88-3.35 119.48-6.9L119.48-6.9Q119.23-6.35 117.53-4.4L117.53-4.4Q117.08-3.9 116.83-4.4L116.83-4.4Q116.78-4.5 116.78-4.67 116.78-4.85 116.98-5.1L116.98-5.1Q119.43-8.15 120.83-10.25L120.83-10.25Q120.83-10.3 121.93-12.35L121.93-12.35Q121.43-12.25 120.91-12.25 120.38-12.25 120.13-12.58 119.88-12.9 120.08-13.35L120.08-13.35Q120.43-14.15 122.73-14.25L122.73-14.25Q122.78-14.35 122.93-14.35L122.93-14.35 125.43-19Q125.63-19.4 125.88-19.83 126.13-20.25 126.26-20.48 126.38-20.7 126.53-20.95 126.68-21.2 126.78-21.3 126.88-21.4 126.98-21.5L126.98-21.5Q127.18-21.8 128.16-21.8 129.13-21.8 129.48-21.25L129.48-21.25Q129.63-21.05 129.63-20.58 129.63-20.1 129.28-19.53 128.93-18.95 128.53-18.7 128.13-18.45 127.98-18.15L127.98-18.15 125.58-13.95ZM130.03 0.5L130.03 0.5Q129.38 1.25 129.75 1.7 130.13 2.15 130.6 2.15 131.08 2.15 131.58 2L131.58 2Q133.73 1.35 135.75-0.58 137.78-2.5 137.78-4.5L137.78-4.5Q137.78-5.6 135.33-6.9L135.33-6.9Q134.18-7.5 134.03-7.6L134.03-7.6Q132.68-8.5 132.33-9.4L132.33-9.4Q131.63-8.2 130.08-5.95L130.08-5.95Q129.73-5.55 129.43-5.78 129.13-6 129.38-6.4L129.38-6.4Q131.43-9.2 132.08-11.1L132.08-11.1Q132.43-13.85 136.08-16.05 139.73-18.25 142.73-18.25L142.73-18.25Q144.63-18.25 145.4-17.57 146.18-16.9 146.18-16.25 146.18-15.6 145.8-14.75 145.43-13.9 144.28-13.15L144.28-13.15Q143.98-12.95 143.78-13.25L143.78-13.25Q143.68-13.55 144.2-14.08 144.73-14.6 144.88-15.5 145.03-16.4 144.08-16.6L144.08-16.6Q143.93-16.6 143.78-16.6L143.78-16.6Q141.83-16.6 138.9-15.15 135.98-13.7 134.33-11.4L134.33-11.4Q133.68-10.55 133.68-9.68 133.68-8.8 134.88-8.1L134.88-8.1Q135.38-7.8 136.58-7.15 137.78-6.5 138.28-6.2 138.78-5.9 139.48-5.25 140.18-4.6 140.23-4.05L140.23-4.05Q140.48-2.55 138.83-0.75L138.83-0.75Q136.48 1.85 131.83 2.9L131.83 2.9Q130.78 3.15 129.7 3.15 128.63 3.15 128.23 2.35L128.23 2.35Q128.08 2.15 128.08 1.73 128.08 1.3 128.88 0.35L128.88 0.35Q129.63-0.4 131.28-1.1L131.28-1.1Q131.43-1.15 131.53-1.05 131.63-0.95 131.58-0.8 131.53-0.65 131.05-0.45 130.58-0.25 130.03 0.5ZM165.62-5.5L165.62-5.5Q166.52-7.35 166.52-8.35 166.52-9.35 166.3-9.93 166.07-10.5 166.5-10.9 166.92-11.3 167.57-11.2L167.57-11.2Q168.57-10.95 168.57-8.95 168.57-6.95 166.22-3.7L166.22-3.7Q166.27-2.35 167.62-2.35 168.97-2.35 171.72-5.25L171.72-5.25Q173.02-6.75 173.35-7.2 173.67-7.65 173.92-7.53 174.17-7.4 174.17-7.3L174.17-7.3Q174.17-6.8 172.37-4.7L172.37-4.7Q169.52-1.2 167.32-1.2L167.32-1.2Q165.87-1.2 165.27-2.45L165.27-2.45Q164.27-1.4 163.32-0.5L163.32-0.5Q161.37 1.15 158.97 1.15L158.97 1.15Q157.62 1.15 156.72 0.5L156.72 0.5Q154.97-0.55 154.97-3.25L154.97-3.25Q154.97-6.2 156.97-9.25L156.97-9.25Q158.12-11.05 159.67-12.4L159.67-12.4Q162.12-14.55 164.32-14.55L164.32-14.55Q164.87-14.55 165.37-14.4L165.37-14.4Q166.87-13.9 166.87-12.5L166.87-12.5Q166.87-11.35 166.27-11.35L166.27-11.35Q166.02-11.45 166.02-12.1L166.02-12.1Q166.02-13 165.02-13L165.02-13Q163.27-13 160.52-9.8 157.77-6.6 157.22-3.35L157.22-3.35Q157.12-2.8 157.12-2.13 157.12-1.45 157.57-0.58 158.02 0.3 159.25 0.3 160.47 0.3 161.92-0.8 163.37-1.9 164.52-3.6L164.52-3.6 164.37-3.9Q164.17-4.7 164.57-5.2 164.97-5.7 165.62-5.5ZM196.32-7Q195.57-5.65 193.62-3.55 191.67-1.45 190.12-0.3L190.12-0.3Q188.12 1.15 185.77 1.15L185.77 1.15Q185.32 1.15 184.6 0.73 183.87 0.3 183.62-0.5 183.37-1.3 183.37-2.05L183.37-2.05Q183.37-4.65 184.37-7.2L184.37-7.2Q184.22-7.1 183-5.08 181.77-3.05 180-1.25 178.22 0.55 176.42 0.55L176.42 0.55Q175.57 0.55 174.47 0.1L174.47 0.1Q172.47-0.8 172.47-3.2L172.47-3.2Q172.47-6.15 174.5-9.28 176.52-12.4 177.07-12.6L177.07-12.6Q177.82-12.8 178.5-12.8 179.17-12.8 179.87-12.53 180.57-12.25 179.67-11.6L179.67-11.6Q176.22-8.45 174.77-4.6L174.77-4.6Q174.22-3.1 174.22-2.08 174.22-1.05 174.75-0.75 175.27-0.45 175.77-0.45L175.77-0.45Q176.97-0.45 179.05-2.13 181.12-3.8 184.77-9.1L184.77-9.1Q185.27-9.85 186.52-12.03 187.77-14.2 188.02-14.6L188.02-14.6Q188.82-14.6 189.9-14.23 190.97-13.85 190.62-13.25L190.62-13.25Q188.22-9.25 187.25-7.35 186.27-5.45 185.92-2.9L185.92-2.9Q185.87-2.45 185.87-1.75 185.87-1.05 186.27-0.6L186.27-0.6Q187.02 0.2 188.35-0.53 189.67-1.25 191.97-3.33 194.27-5.4 195.67-7.4L195.67-7.4Q195.87-7.65 196.15-7.53 196.42-7.4 196.42-7.28 196.42-7.15 196.32-7L196.32-7ZM201.67 1.25L201.67 1.25Q199.12 1.25 199.12-1.83 199.12-4.9 203.52-9.4L203.52-9.4Q203.87-9.75 204.02-9.95L204.02-9.95 204.37-10.45Q205.07-11.4 205.02-11.65L205.02-11.65 204.87-12.1Q204.67-12.7 203.22-12.98 201.77-13.25 200.87-13.25L200.87-13.25Q196.37-6.9 195.67-6 194.97-5.1 194.72-5.25 194.47-5.4 194.47-5.6 194.47-5.8 194.77-6.2L194.77-6.2Q197.47-9.5 199.42-13.25L199.42-13.25Q198.82-13.35 198.52-13.68 198.22-14 198.47-14.78 198.72-15.55 199.99-16.85 201.27-18.15 202.22-18.6 203.17-19.05 203.42-19.15 203.67-19.25 203.97-19.25L203.97-19.25Q204.57-19.25 203.57-17.45L203.57-17.45 201.62-14.35Q203.87-14.2 205.47-14.2L205.47-14.2 207.22-14.25Q208.07-14.25 208.47-14.03 208.87-13.8 208.67-13.25L208.67-13.25Q208.32-12.3 206.92-10.7L206.92-10.7Q203.92-7.2 202.42-3.25L202.42-3.25Q202.07-2.3 202.07-1.6L202.07-1.6Q202.07-0.15 203.12-0.15L203.12-0.15Q203.47-0.15 204.44-0.7 205.42-1.25 207.72-3.33 210.02-5.4 211.42-7.4L211.42-7.4Q211.62-7.65 211.89-7.53 212.17-7.4 212.17-7.28 212.17-7.15 212.07-7L212.07-7Q211.32-5.65 209.37-3.55 207.42-1.45 205.57-0.15L205.57-0.15Q203.77 1.25 201.67 1.25ZM220.41 19.05L220.41 19.05Q220.01 19.05 219.41 18.9L219.41 18.9Q216.86 18.25 216.86 16.23 216.86 14.2 219.49 11.15 222.11 8.1 230.56 2.5L230.56 2.5Q235.26-7.1 236.51-10.95L236.51-10.95Q235.91-10.25 234.16-7.93 232.41-5.6 231.06-3.98 229.71-2.35 227.81-0.9 225.91 0.55 224.31 0.55 222.71 0.55 221.84-0.18 220.96-0.9 220.86-1.7 220.76-2.5 220.76-3.05L220.76-3.05Q220.76-4.9 221.76-6.75L221.76-6.75Q223.26-9.8 225.81-12L225.81-12Q226.76-12.9 227.49-12.9 228.21-12.9 228.81-12.45L228.81-12.45Q229.46-11.75 229.21-11.25L229.21-11.25Q227.31-10.15 224.86-7L224.86-7Q223.56-5.3 223.06-2.7L223.06-2.7Q223.01-2.35 223.01-1.83 223.01-1.3 223.44-0.98 223.86-0.65 224.31-0.65L224.31-0.65Q225.86-0.65 227.56-2.3 229.26-3.95 230.81-5.78 232.36-7.6 234.34-10.15 236.31-12.7 236.94-13.5 237.56-14.3 238.21-14.3L238.21-14.3Q239.01-14.3 239.86-13.85 240.71-13.4 240.59-13.15 240.46-12.9 238.04-7.48 235.61-2.05 234.51 0.3L234.51 0.3Q235.71-0.35 238.59-2.78 241.46-5.2 243.46-7.7L243.46-7.7Q243.96-8.3 244.11-7.8L244.11-7.8Q244.16-7.7 244.16-7.48 244.16-7.25 243.86-6.85L243.86-6.85Q242.31-4.8 238.91-1.7 235.51 1.4 233.51 2.5L233.51 2.5Q229.26 11.25 227.81 13.5L227.81 13.5Q224.06 19.05 220.41 19.05ZM229.61 4.4L229.61 4.4Q223.61 8.9 221.04 11.5 218.46 14.1 218.46 15.98 218.46 17.85 219.76 17.85L219.76 17.85Q220.76 17.85 222.06 16.82 223.36 15.8 224.56 14.1 225.76 12.4 226.39 11.18 227.01 9.95 228.11 7.58 229.21 5.2 229.61 4.4ZM254.11-14.55L254.11-14.55Q256.81-14.55 256.81-11.95L256.81-11.95Q256.81-10.6 256.06-9.75L256.06-9.75Q254.81-7.9 252.01-6.53 249.21-5.15 247.26-5L247.26-5Q246.56-4.95 246.51-5.4L246.51-5.4Q246.46-5.6 246.64-5.65 246.81-5.7 246.91-5.7L246.91-5.7Q248.06-5.8 249.86-6.8L249.86-6.8Q253.21-8.6 254.76-10.5L254.76-10.5Q255.41-11.4 255.41-12.23 255.41-13.05 254.61-13.05L254.61-13.05Q253.96-13.05 252.86-12.5L252.86-12.5Q250.51-11.4 247.91-8.68 245.31-5.95 244.51-3.35L244.51-3.35Q244.26-2.55 244.26-1.78 244.26-1 244.91-0.3 245.56 0.4 246.91 0.4L246.91 0.4Q248.41 0.4 250.36-0.4L250.36-0.4Q256.01-2.7 259.06-7.35L259.06-7.35Q259.36-7.75 259.61-7.5L259.61-7.5Q259.81-7.4 259.81-7.25 259.81-7.1 259.66-6.9L259.66-6.9Q258.16-4.4 255.86-2.45L255.86-2.45Q251.41 1.35 247.21 1.35L247.21 1.35Q243.61 1.35 242.16-0.8L242.16-0.8Q241.61-1.65 241.61-2.85 241.61-4.05 242.26-5.7L242.26-5.7Q243.51-8.55 247.61-11.55 251.71-14.55 254.11-14.55ZM265.86-13.95L266.51-14Q270.36-14.35 271.18-14.35 272.01-14.35 272.01-14.1L272.01-14.1Q272.01-13.8 270.83-13.48 269.66-13.15 265.11-12.65L265.11-12.65Q264.86-12.2 264.51-11.6L264.51-11.6Q263.76-10.4 263.71-10.15L263.71-10.15Q260.86-4.45 260.71-2.9L260.71-2.9Q260.66-2.45 260.66-1.75 260.66-1.05 261.06-0.6L261.06-0.6Q261.76 0.2 263.06-0.5 264.36-1.2 266.68-3.3 269.01-5.4 270.46-7.4L270.46-7.4Q270.66-7.65 270.96-7.5L270.96-7.5Q271.71-7.15 268.36-3.55L268.36-3.55Q265.16-0.1 263.01 0.7L263.01 0.7Q261.76 1.15 260.91 1.15L260.91 1.15Q258.91 1.15 258.26-0.75L258.26-0.75Q258.16-1.1 258.16-1.6L258.16-1.6Q258.16-3.35 259.76-6.9L259.76-6.9Q259.51-6.35 257.81-4.4L257.81-4.4Q257.36-3.9 257.11-4.4L257.11-4.4Q257.06-4.5 257.06-4.67 257.06-4.85 257.26-5.1L257.26-5.1Q259.71-8.15 261.11-10.25L261.11-10.25Q261.11-10.3 262.21-12.35L262.21-12.35Q261.71-12.25 261.18-12.25 260.66-12.25 260.41-12.58 260.16-12.9 260.36-13.35L260.36-13.35Q260.71-14.15 263.01-14.25L263.01-14.25Q263.06-14.35 263.21-14.35L263.21-14.35 265.71-19Q265.91-19.4 266.16-19.83 266.41-20.25 266.53-20.48 266.66-20.7 266.81-20.95 266.96-21.2 267.06-21.3 267.16-21.4 267.26-21.5L267.26-21.5Q267.46-21.8 268.43-21.8 269.41-21.8 269.76-21.25L269.76-21.25Q269.91-21.05 269.91-20.58 269.91-20.1 269.56-19.53 269.21-18.95 268.81-18.7 268.41-18.45 268.26-18.15L268.26-18.15 265.86-13.95Z" opacity="1" transform="matrix(1,0,0,1,0,0)" fill="#c55501" class="slogan-text-1" data-fill-palette-color="quaternary" id="text-1"></path></svg></g></svg></g></svg></g></svg></g></svg></g></svg></g></svg></g></svg></g><defs></defs></svg><rect width="342.85155851775386" height="342.85155851775386" fill="none" stroke="none" visibility="hidden"></rect></g></svg></g></svg>